# Blender 5.1.0
# www.blender.org
mtllib Untitled.mtl
o TT_Racket.001
v -0.010630 -0.150971 -0.010442
v -0.011858 -0.151831 -0.005013
v -0.010693 -0.145375 -0.010504
v -0.013412 -0.145375 -0.005013
v -0.010311 -0.137090 -0.010247
v -0.012138 -0.134389 -0.006009
v -0.011994 -0.125324 -0.004720
v -0.011643 -0.115298 -0.004144
v -0.011378 -0.105272 -0.003631
v -0.011234 -0.095246 -0.003295
v -0.011513 -0.085220 -0.003388
v -0.005013 -0.151356 -0.010728
v -0.005013 -0.153384 -0.005013
v -0.005013 -0.145375 -0.011259
v -0.005997 -0.134389 -0.010735
v -0.009995 -0.130406 -0.010016
v -0.004347 -0.125324 -0.010709
v -0.009360 -0.125324 -0.009733
v -0.003378 -0.115298 -0.010693
v -0.008391 -0.115298 -0.009157
v -0.002850 -0.105272 -0.010695
v -0.007863 -0.105272 -0.008643
v -0.002530 -0.095246 -0.010666
v -0.007543 -0.095246 -0.008308
v -0.002372 -0.085220 -0.010640
v -0.007385 -0.085220 -0.008401
v -0.070224 -0.020167 -0.000124
v -0.070831 -0.015039 -0.001204
v -0.071796 -0.005013 -0.002431
v -0.062168 -0.033195 -0.002083
v -0.065373 -0.024131 -0.002273
v -0.065168 -0.015039 -0.003607
v -0.065168 -0.005013 -0.005072
v -0.053272 -0.043176 -0.002189
v -0.056025 -0.035959 -0.003924
v -0.055142 -0.025065 -0.005861
v -0.055142 -0.015039 -0.005266
v -0.055142 -0.005013 -0.005556
v -0.043088 -0.051832 -0.002000
v -0.045905 -0.045957 -0.003811
v -0.045116 -0.035091 -0.006651
v -0.045116 -0.025065 -0.006375
v -0.045116 -0.015039 -0.005977
v -0.045116 -0.005013 -0.005975
v -0.030215 -0.060225 -0.000087
v -0.034170 -0.055162 -0.002566
v -0.035091 -0.045116 -0.006453
v -0.035091 -0.035091 -0.006684
v -0.035091 -0.025065 -0.006577
v -0.035091 -0.015039 -0.006373
v -0.035091 -0.005013 -0.006304
v -0.025065 -0.061791 -0.000817
v -0.025065 -0.055142 -0.004133
v -0.025065 -0.045116 -0.006735
v -0.025065 -0.035091 -0.006790
v -0.025065 -0.025065 -0.006640
v -0.025065 -0.015039 -0.006567
v -0.025065 -0.005013 -0.006587
v -0.012880 -0.075194 -0.003880
v -0.015602 -0.065432 -0.003808
v -0.015039 -0.055142 -0.006021
v -0.015039 -0.045116 -0.006770
v -0.015039 -0.035091 -0.006803
v -0.015039 -0.025065 -0.006705
v -0.015039 -0.015039 -0.006667
v -0.015039 -0.005013 -0.006678
v -0.002290 -0.075194 -0.010568
v -0.007303 -0.075194 -0.008893
v -0.001483 -0.069012 -0.010345
v -0.004900 -0.065469 -0.008836
v -0.005013 -0.055142 -0.007261
v -0.005013 -0.045116 -0.006718
v -0.005013 -0.035091 -0.006796
v -0.005013 -0.025065 -0.006760
v -0.005013 -0.015039 -0.006698
v -0.005013 -0.005013 -0.006653
v -0.011922 -0.151865 0.005013
v -0.010715 -0.151017 0.010516
v -0.013536 -0.145375 0.005013
v -0.010816 -0.145375 0.010610
v -0.012763 -0.135349 0.005013
v -0.010337 -0.135349 0.010275
v -0.011631 -0.125949 0.005760
v -0.010076 -0.129708 0.010069
v -0.011643 -0.115298 0.004094
v -0.011378 -0.105272 0.003525
v -0.011234 -0.095246 0.003121
v -0.011513 -0.085220 0.003242
v -0.005013 -0.153500 0.005013
v -0.005013 -0.151472 0.010891
v -0.005013 -0.145375 0.011586
v -0.005013 -0.135349 0.011206
v -0.009247 -0.123025 0.009601
v -0.005548 -0.125949 0.010752
v -0.008508 -0.115298 0.009107
v -0.003495 -0.115298 0.010837
v -0.007865 -0.105272 0.008538
v -0.002852 -0.105272 0.010767
v -0.007404 -0.095246 0.008134
v -0.002391 -0.095246 0.010693
v -0.007214 -0.085220 0.008255
v -0.002201 -0.085220 0.010635
v -0.070224 -0.020167 0.000091
v -0.070831 -0.015039 0.001016
v -0.071796 -0.005013 0.002269
v -0.062168 -0.033195 0.002052
v -0.065373 -0.024131 0.002398
v -0.065168 -0.015039 0.003814
v -0.065168 -0.005013 0.005208
v -0.053272 -0.043176 0.002113
v -0.056025 -0.035959 0.003793
v -0.055142 -0.025065 0.006075
v -0.055142 -0.015039 0.005891
v -0.055142 -0.005013 0.006033
v -0.043088 -0.051832 0.001786
v -0.045905 -0.045957 0.003598
v -0.045116 -0.035091 0.006399
v -0.045116 -0.025065 0.006346
v -0.045116 -0.015039 0.006243
v -0.045116 -0.005013 0.006283
v -0.030215 -0.060225 0.000080
v -0.034170 -0.055162 0.002310
v -0.035091 -0.045116 0.006044
v -0.035091 -0.035091 0.006446
v -0.035091 -0.025065 0.006405
v -0.035091 -0.015039 0.006448
v -0.035091 -0.005013 0.006577
v -0.025065 -0.061791 0.000772
v -0.025065 -0.055142 0.003825
v -0.025065 -0.045116 0.006298
v -0.025065 -0.035091 0.006428
v -0.025065 -0.025065 0.006439
v -0.025065 -0.015039 0.006604
v -0.025065 -0.005013 0.006704
v -0.012880 -0.075194 0.003787
v -0.015602 -0.065432 0.003745
v -0.015039 -0.055142 0.005755
v -0.015039 -0.045116 0.006350
v -0.015039 -0.035091 0.006418
v -0.015039 -0.025065 0.006515
v -0.015039 -0.015039 0.006615
v -0.015039 -0.005013 0.006658
v -0.007143 -0.075194 0.008800
v -0.002130 -0.075194 0.010557
v -0.004842 -0.065502 0.008792
v -0.001385 -0.069066 0.010340
v -0.005013 -0.055142 0.007047
v -0.005013 -0.045116 0.006391
v -0.005013 -0.035091 0.006539
v -0.005013 -0.025065 0.006600
v -0.005013 -0.015039 0.006632
v -0.005013 -0.005013 0.006711
v -0.072392 0.005013 -0.002748
v -0.072625 0.015039 -0.002966
v -0.072473 0.025065 -0.002936
v -0.071924 0.035091 -0.002571
v -0.070929 0.045116 -0.001332
v -0.070270 0.050396 -0.000212
v -0.065168 0.005013 -0.005709
v -0.065168 0.015039 -0.006184
v -0.065168 0.025065 -0.006280
v -0.065168 0.035091 -0.005718
v -0.065168 0.045116 -0.004139
v -0.065521 0.054300 -0.002447
v -0.062319 0.065168 -0.002412
v -0.060781 0.071129 -0.001113
v -0.055142 0.005013 -0.005973
v -0.055142 0.015039 -0.006405
v -0.055142 0.025065 -0.006633
v -0.055142 0.035091 -0.006336
v -0.055142 0.045116 -0.005810
v -0.055142 0.055142 -0.005892
v -0.055142 0.065168 -0.005673
v -0.055056 0.074760 -0.003217
v -0.045116 0.005013 -0.006102
v -0.045116 0.015039 -0.006405
v -0.045116 0.025065 -0.006586
v -0.045116 0.035091 -0.006450
v -0.045116 0.045116 -0.006225
v -0.045116 0.055142 -0.006218
v -0.045116 0.065168 -0.006575
v -0.045116 0.075194 -0.006611
v -0.035091 0.005013 -0.006342
v -0.035091 0.015039 -0.006536
v -0.035091 0.025065 -0.006700
v -0.035091 0.035091 -0.006670
v -0.035091 0.045116 -0.006579
v -0.035091 0.055142 -0.006570
v -0.035091 0.065168 -0.006710
v -0.035091 0.075194 -0.006888
v -0.025065 0.005013 -0.006594
v -0.025065 0.015039 -0.006690
v -0.025065 0.025065 -0.006844
v -0.025065 0.035091 -0.006833
v -0.025065 0.045116 -0.006710
v -0.025065 0.055142 -0.006692
v -0.025065 0.065168 -0.006797
v -0.025065 0.075194 -0.006925
v -0.015039 0.005013 -0.006662
v -0.015039 0.015039 -0.006707
v -0.015039 0.025065 -0.006831
v -0.015039 0.035091 -0.006820
v -0.015039 0.045116 -0.006723
v -0.015039 0.055142 -0.006703
v -0.015039 0.065168 -0.006777
v -0.015039 0.075194 -0.006850
v -0.005013 0.005013 -0.006648
v -0.005013 0.015039 -0.006691
v -0.005013 0.025065 -0.006779
v -0.005013 0.035091 -0.006777
v -0.005013 0.045116 -0.006700
v -0.005013 0.055142 -0.006643
v -0.005013 0.065168 -0.006662
v -0.005013 0.075194 -0.006704
v -0.051656 0.081783 -0.001939
v -0.044871 0.085163 -0.003451
v -0.041366 0.091165 -0.001510
v -0.035091 0.085220 -0.006360
v -0.035091 0.092986 -0.002890
v -0.025065 0.085220 -0.006971
v -0.025202 0.095886 -0.003548
v -0.021952 0.100940 -0.001264
v -0.015039 0.085220 -0.006866
v -0.015039 0.095246 -0.005857
v -0.015039 0.101807 -0.002420
v -0.005013 0.085220 -0.006738
v -0.005013 0.095246 -0.006474
v -0.005013 0.102505 -0.003093
v -0.072392 0.005013 0.002705
v -0.072625 0.015039 0.002821
v -0.072473 0.025065 0.002852
v -0.071924 0.035091 0.002449
v -0.070929 0.045116 0.001182
v -0.070270 0.050396 0.000197
v -0.065168 0.005013 0.005792
v -0.065168 0.015039 0.006078
v -0.065168 0.025065 0.006095
v -0.065168 0.035091 0.005353
v -0.065168 0.045116 0.004053
v -0.065521 0.054300 0.002598
v -0.062319 0.065168 0.002297
v -0.060781 0.071129 0.000941
v -0.055142 0.005013 0.006237
v -0.055142 0.015039 0.006482
v -0.055142 0.025065 0.006480
v -0.055142 0.035091 0.006179
v -0.055142 0.045116 0.006170
v -0.055142 0.055142 0.006408
v -0.055142 0.065168 0.005623
v -0.055056 0.074760 0.002869
v -0.045116 0.005013 0.006409
v -0.045116 0.015039 0.006547
v -0.045116 0.025065 0.006601
v -0.045116 0.035091 0.006631
v -0.045116 0.045116 0.006656
v -0.045116 0.055142 0.006695
v -0.045116 0.065168 0.006717
v -0.045116 0.075194 0.006121
v -0.035091 0.005013 0.006610
v -0.035091 0.015039 0.006713
v -0.035091 0.025065 0.006850
v -0.035091 0.035091 0.006858
v -0.035091 0.045116 0.006819
v -0.035091 0.055142 0.006810
v -0.035091 0.065168 0.006813
v -0.035091 0.075194 0.006615
v -0.025065 0.005013 0.006713
v -0.025065 0.015039 0.006848
v -0.025065 0.025065 0.007049
v -0.025065 0.035091 0.007089
v -0.025065 0.045116 0.007007
v -0.025065 0.055142 0.006884
v -0.025065 0.065168 0.006871
v -0.025065 0.075194 0.006792
v -0.015039 0.005013 0.006802
v -0.015039 0.015039 0.006980
v -0.015039 0.025065 0.007164
v -0.015039 0.035091 0.007211
v -0.015039 0.045116 0.007119
v -0.015039 0.055142 0.006932
v -0.015039 0.065168 0.006882
v -0.015039 0.075194 0.006750
v -0.005013 0.005013 0.006901
v -0.005013 0.015039 0.007036
v -0.005013 0.025065 0.007135
v -0.005013 0.035091 0.007149
v -0.005013 0.045116 0.007043
v -0.005013 0.055142 0.006883
v -0.005013 0.065168 0.006842
v -0.005013 0.075194 0.006777
v -0.051656 0.081783 0.001607
v -0.044871 0.085163 0.003011
v -0.041366 0.091165 0.001343
v -0.035091 0.085220 0.005913
v -0.035091 0.092986 0.002704
v -0.025065 0.085220 0.006673
v -0.025202 0.095886 0.003382
v -0.021952 0.100940 0.001180
v -0.015039 0.085220 0.006545
v -0.015039 0.095246 0.005518
v -0.015039 0.101807 0.002249
v -0.005013 0.085220 0.006585
v -0.005013 0.095246 0.006121
v -0.005013 0.102505 0.002874
v 0.005013 -0.151283 -0.010682
v 0.005013 -0.153270 -0.005013
v 0.005013 -0.145375 -0.011185
v 0.005922 -0.134582 -0.010713
v 0.009870 -0.130729 -0.009976
v 0.004331 -0.125324 -0.010709
v 0.009344 -0.125324 -0.009763
v 0.003537 -0.115298 -0.010693
v 0.008550 -0.115298 -0.009331
v 0.003040 -0.105272 -0.010695
v 0.008053 -0.105272 -0.008928
v 0.002740 -0.095246 -0.010666
v 0.007753 -0.095246 -0.008648
v 0.002625 -0.085220 -0.010640
v 0.007638 -0.085220 -0.008727
v 0.010548 -0.150873 -0.010380
v 0.011805 -0.151717 -0.005013
v 0.010597 -0.145375 -0.010430
v 0.013391 -0.145375 -0.005013
v 0.010266 -0.137412 -0.010210
v 0.012223 -0.134582 -0.005986
v 0.012150 -0.125324 -0.004750
v 0.011835 -0.115298 -0.004318
v 0.011596 -0.105272 -0.003915
v 0.011434 -0.095246 -0.003635
v 0.011699 -0.085220 -0.003714
v 0.002655 -0.075194 -0.010568
v 0.007668 -0.075194 -0.009175
v 0.001767 -0.069012 -0.010345
v 0.005071 -0.065469 -0.008952
v 0.005013 -0.055142 -0.007301
v 0.005013 -0.045116 -0.006743
v 0.005013 -0.035091 -0.006828
v 0.005013 -0.025065 -0.006749
v 0.005013 -0.015039 -0.006622
v 0.005013 -0.005013 -0.006612
v 0.013075 -0.075194 -0.004162
v 0.015683 -0.065544 -0.003942
v 0.015039 -0.055142 -0.006062
v 0.015039 -0.045116 -0.006719
v 0.015039 -0.035091 -0.006783
v 0.015039 -0.025065 -0.006692
v 0.015039 -0.015039 -0.006558
v 0.015039 -0.005013 -0.006560
v 0.025065 -0.061970 -0.000880
v 0.025065 -0.055142 -0.004096
v 0.025065 -0.045116 -0.006575
v 0.025065 -0.035091 -0.006729
v 0.025065 -0.025065 -0.006628
v 0.025065 -0.015039 -0.006525
v 0.025065 -0.005013 -0.006516
v 0.030312 -0.060277 -0.000141
v 0.034229 -0.055164 -0.002474
v 0.035091 -0.045116 -0.006291
v 0.035091 -0.035091 -0.006624
v 0.035091 -0.025065 -0.006497
v 0.035091 -0.015039 -0.006388
v 0.035091 -0.005013 -0.006438
v 0.043342 -0.051836 -0.001897
v 0.046057 -0.046074 -0.003693
v 0.045116 -0.035091 -0.006509
v 0.045116 -0.025065 -0.006328
v 0.045116 -0.015039 -0.006161
v 0.045116 -0.005013 -0.006346
v 0.055142 -0.042593 -0.001661
v 0.055142 -0.035091 -0.004959
v 0.055142 -0.025065 -0.006240
v 0.055142 -0.015039 -0.006107
v 0.055142 -0.005013 -0.006331
v 0.060200 -0.040156 -0.000117
v 0.061885 -0.035091 -0.001707
v 0.065522 -0.024532 -0.002908
v 0.065168 -0.015039 -0.004774
v 0.065168 -0.005013 -0.005886
v 0.070485 -0.020836 -0.000708
v 0.071253 -0.015039 -0.001690
v 0.072255 -0.005013 -0.002711
v 0.005013 -0.153488 0.005013
v 0.005013 -0.151500 0.010920
v 0.005013 -0.145375 0.011697
v 0.005013 -0.135349 0.011356
v 0.009761 -0.121246 0.009904
v 0.005857 -0.124882 0.010806
v 0.009127 -0.115298 0.009554
v 0.004114 -0.115298 0.010837
v 0.008328 -0.105272 0.009034
v 0.003315 -0.105272 0.010767
v 0.007894 -0.095246 0.008724
v 0.002881 -0.095246 0.010693
v 0.007690 -0.085220 0.008779
v 0.002677 -0.085220 0.010635
v 0.011985 -0.151853 0.005013
v 0.010789 -0.151054 0.010555
v 0.013777 -0.145375 0.005013
v 0.010983 -0.145375 0.010721
v 0.013099 -0.135349 0.005013
v 0.010532 -0.135349 0.010425
v 0.011823 -0.124882 0.005943
v 0.010189 -0.127930 0.010160
v 0.011835 -0.115298 0.004541
v 0.011596 -0.105272 0.004021
v 0.011434 -0.095246 0.003711
v 0.011699 -0.085220 0.003766
v 0.007637 -0.075194 0.009173
v 0.002624 -0.075194 0.010557
v 0.005066 -0.065502 0.008957
v 0.001759 -0.069066 0.010340
v 0.005013 -0.055142 0.007130
v 0.005013 -0.045116 0.006486
v 0.005013 -0.035091 0.006685
v 0.005013 -0.025065 0.006651
v 0.005013 -0.015039 0.006608
v 0.005013 -0.005013 0.006681
v 0.013075 -0.075194 0.004160
v 0.015683 -0.065544 0.003952
v 0.015039 -0.055142 0.005926
v 0.015039 -0.045116 0.006536
v 0.015039 -0.035091 0.006738
v 0.015039 -0.025065 0.006691
v 0.015039 -0.015039 0.006584
v 0.015039 -0.005013 0.006531
v 0.025065 -0.061970 0.000870
v 0.025065 -0.055142 0.004003
v 0.025065 -0.045116 0.006508
v 0.025065 -0.035091 0.006772
v 0.025065 -0.025065 0.006703
v 0.025065 -0.015039 0.006550
v 0.025065 -0.005013 0.006418
v 0.030312 -0.060277 0.000141
v 0.034229 -0.055164 0.002385
v 0.035091 -0.045116 0.006240
v 0.035091 -0.035091 0.006799
v 0.035091 -0.025065 0.006721
v 0.035091 -0.015039 0.006501
v 0.035091 -0.005013 0.006440
v 0.043342 -0.051836 0.001791
v 0.046057 -0.046074 0.003677
v 0.045116 -0.035091 0.006717
v 0.045116 -0.025065 0.006768
v 0.045116 -0.015039 0.006539
v 0.045116 -0.005013 0.006487
v 0.055142 -0.042593 0.001680
v 0.055142 -0.035091 0.005114
v 0.055142 -0.025065 0.006763
v 0.055142 -0.015039 0.006585
v 0.055142 -0.005013 0.006481
v 0.060200 -0.040156 0.000098
v 0.061885 -0.035091 0.001778
v 0.065522 -0.024532 0.003112
v 0.065168 -0.015039 0.005058
v 0.065168 -0.005013 0.005989
v 0.070485 -0.020836 0.000689
v 0.071253 -0.015039 0.001760
v 0.072255 -0.005013 0.002754
v 0.005013 0.005013 -0.006665
v 0.005013 0.015039 -0.006711
v 0.005013 0.025065 -0.006749
v 0.005013 0.035091 -0.006702
v 0.005013 0.045116 -0.006576
v 0.005013 0.055142 -0.006492
v 0.005013 0.065168 -0.006507
v 0.005013 0.075194 -0.006585
v 0.015039 0.005013 -0.006602
v 0.015039 0.015039 -0.006636
v 0.015039 0.025065 -0.006661
v 0.015039 0.035091 -0.006630
v 0.015039 0.045116 -0.006509
v 0.015039 0.055142 -0.006410
v 0.015039 0.065168 -0.006432
v 0.015039 0.075194 -0.006585
v 0.025065 0.005013 -0.006509
v 0.025065 0.015039 -0.006526
v 0.025065 0.025065 -0.006569
v 0.025065 0.035091 -0.006608
v 0.025065 0.045116 -0.006565
v 0.025065 0.055142 -0.006458
v 0.025065 0.065168 -0.006406
v 0.025065 0.075194 -0.006622
v 0.035091 0.005013 -0.006450
v 0.035091 0.015039 -0.006445
v 0.035091 0.025065 -0.006487
v 0.035091 0.035091 -0.006569
v 0.035091 0.045116 -0.006635
v 0.035091 0.055142 -0.006590
v 0.035091 0.065168 -0.006394
v 0.035091 0.075194 -0.006536
v 0.045116 0.005013 -0.006349
v 0.045116 0.015039 -0.006330
v 0.045116 0.025065 -0.006372
v 0.045116 0.035091 -0.006425
v 0.045116 0.045116 -0.006552
v 0.045116 0.055142 -0.006521
v 0.045116 0.065168 -0.006380
v 0.045116 0.075194 -0.006346
v 0.055142 0.005013 -0.006278
v 0.055142 0.015039 -0.006289
v 0.055142 0.025065 -0.006326
v 0.055142 0.035091 -0.006302
v 0.055142 0.045116 -0.006445
v 0.055142 0.055142 -0.006566
v 0.055142 0.065168 -0.005952
v 0.055206 0.074975 -0.003331
v 0.065168 0.005013 -0.006272
v 0.065168 0.015039 -0.006343
v 0.065168 0.025065 -0.006228
v 0.065168 0.035091 -0.005875
v 0.065168 0.045116 -0.005109
v 0.065681 0.054790 -0.003192
v 0.062707 0.065168 -0.002770
v 0.061032 0.071488 -0.001395
v 0.072822 0.005013 -0.003137
v 0.073012 0.015039 -0.003184
v 0.072840 0.025065 -0.003054
v 0.072277 0.035091 -0.002729
v 0.071308 0.045116 -0.001883
v 0.070544 0.051213 -0.000812
v 0.005013 0.085220 -0.006697
v 0.005013 0.095246 -0.006498
v 0.005013 0.102519 -0.003121
v 0.015039 0.085220 -0.006770
v 0.015039 0.095246 -0.006032
v 0.015039 0.101861 -0.002610
v 0.025065 0.085220 -0.006971
v 0.025360 0.095948 -0.003733
v 0.022215 0.100994 -0.001480
v 0.035091 0.085220 -0.006568
v 0.035091 0.093188 -0.003168
v 0.045025 0.085308 -0.003597
v 0.041621 0.091332 -0.001772
v 0.051906 0.082025 -0.001979
v 0.005013 0.005013 0.006789
v 0.005013 0.015039 0.006865
v 0.005013 0.025065 0.006925
v 0.005013 0.035091 0.006967
v 0.005013 0.045116 0.006918
v 0.005013 0.055142 0.006844
v 0.005013 0.065168 0.006845
v 0.005013 0.075194 0.006918
v 0.015039 0.005013 0.006499
v 0.015039 0.015039 0.006554
v 0.015039 0.025065 0.006694
v 0.015039 0.035091 0.006903
v 0.015039 0.045116 0.006969
v 0.015039 0.055142 0.006915
v 0.015039 0.065168 0.006904
v 0.015039 0.075194 0.006952
v 0.025065 0.005013 0.006356
v 0.025065 0.015039 0.006383
v 0.025065 0.025065 0.006535
v 0.025065 0.035091 0.006860
v 0.025065 0.045116 0.007026
v 0.025065 0.055142 0.006961
v 0.025065 0.065168 0.006902
v 0.025065 0.075194 0.006912
v 0.035091 0.005013 0.006437
v 0.035091 0.015039 0.006389
v 0.035091 0.025065 0.006444
v 0.035091 0.035091 0.006780
v 0.035091 0.045116 0.007034
v 0.035091 0.055142 0.007001
v 0.035091 0.065168 0.006904
v 0.035091 0.075194 0.006847
v 0.045116 0.005013 0.006467
v 0.045116 0.015039 0.006394
v 0.045116 0.025065 0.006405
v 0.045116 0.035091 0.006722
v 0.045116 0.045116 0.006998
v 0.045116 0.055142 0.006896
v 0.045116 0.065168 0.006804
v 0.045116 0.075194 0.006514
v 0.055142 0.005013 0.006386
v 0.055142 0.015039 0.006328
v 0.055142 0.025065 0.006497
v 0.055142 0.035091 0.006814
v 0.055142 0.045116 0.006904
v 0.055142 0.055142 0.006751
v 0.055142 0.065168 0.005990
v 0.055206 0.074975 0.003252
v 0.065168 0.005013 0.006155
v 0.065168 0.015039 0.006200
v 0.065168 0.025065 0.006452
v 0.065168 0.035091 0.006303
v 0.065168 0.045116 0.005179
v 0.065681 0.054790 0.003085
v 0.062707 0.065168 0.002655
v 0.061032 0.071488 0.001287
v 0.072822 0.005013 0.002984
v 0.073012 0.015039 0.003058
v 0.072840 0.025065 0.003148
v 0.072277 0.035091 0.002831
v 0.071308 0.045116 0.001745
v 0.070544 0.051213 0.000638
v 0.005013 0.085220 0.006738
v 0.005013 0.095246 0.006163
v 0.005013 0.102519 0.002911
v 0.015039 0.085220 0.006718
v 0.015039 0.095246 0.005673
v 0.015039 0.101861 0.002452
v 0.025065 0.085220 0.006736
v 0.025360 0.095948 0.003453
v 0.022215 0.100994 0.001401
v 0.035091 0.085220 0.006174
v 0.035091 0.093188 0.002750
v 0.045025 0.085308 0.003346
v 0.041621 0.091332 0.001438
v 0.051906 0.082025 0.001877
vn -0.9296 -0.1265 -0.3461
vn -0.8978 0.0604 -0.4363
vn -0.1542 -0.9522 -0.2637
vn -0.0935 -0.0515 -0.9943
vn -0.1330 0.0360 -0.9905
vn -0.6089 0.0562 -0.7912
vn -0.1642 0.0480 -0.9853
vn -0.8966 0.0973 -0.4319
vn -0.2427 0.0521 -0.9687
vn -0.8592 0.0856 -0.5044
vn -0.3366 0.0418 -0.9407
vn -0.8273 0.0614 -0.5584
vn -0.4024 0.0295 -0.9150
vn -0.8114 0.0383 -0.5832
vn -0.4168 0.0036 -0.9090
vn -0.7885 -0.0105 -0.6149
vn -0.4429 -0.1622 -0.8818
vn -0.3758 -0.1411 -0.9159
vn -0.3397 -0.1387 -0.9302
vn -0.2521 -0.0347 -0.9671
vn -0.1059 -0.0867 -0.9906
vn -0.2494 -0.2629 -0.9321
vn -0.1497 -0.0720 -0.9861
vn -0.0609 0.0493 -0.9969
vn -0.0562 -0.0143 -0.9983
vn -0.1944 -0.3707 -0.9082
vn -0.1205 -0.1399 -0.9828
vn -0.0118 0.0191 -0.9997
vn -0.0298 0.0300 -0.9991
vn -0.0361 0.0035 -0.9993
vn -0.1903 -0.4863 -0.8528
vn -0.0912 -0.3102 -0.9463
vn -0.0193 -0.0142 -0.9997
vn -0.0084 0.0128 -0.9999
vn -0.0128 0.0138 -0.9998
vn -0.0239 0.0024 -0.9997
vn -0.2830 -0.2891 -0.9145
vn -0.0942 -0.1641 -0.9819
vn -0.0024 -0.0044 -1.0000
vn -0.0039 0.0124 -0.9999
vn -0.0082 0.0055 -1.0000
vn -0.0095 -0.0015 -1.0000
vn -0.3636 -0.0165 -0.9314
vn -0.7162 -0.0799 -0.6933
vn -0.3221 0.0815 -0.9432
vn -0.5250 -0.0030 -0.8511
vn -0.2894 -0.0232 -0.9569
vn -0.0591 -0.0103 -0.9982
vn 0.0030 -0.0055 -1.0000
vn -0.0024 0.0067 -1.0000
vn -0.0043 0.0050 -1.0000
vn -0.0003 0.0017 -1.0000
vn -0.9713 -0.2376 -0.0095
vn -0.9310 -0.1342 0.3396
vn -0.9949 0.0955 -0.0310
vn -0.9019 0.0634 0.4273
vn -0.9975 0.0697 -0.0070
vn -0.9111 0.0698 0.4063
vn -0.9996 0.0174 0.0200
vn -0.9997 0.0264 -0.0000
vn -0.9999 0.0144 -0.0000
vn -0.9996 -0.0278 -0.0000
vn -0.2258 -0.9741 -0.0080
vn -0.1654 -0.9519 0.2581
vn -0.1190 -0.0677 0.9906
vn -0.1688 0.0392 0.9849
vn -0.6288 0.1317 0.7663
vn -0.1763 0.0400 0.9835
vn -0.8585 0.0933 0.5043
vn -0.2933 0.0658 0.9538
vn -0.8314 0.0689 0.5513
vn -0.3668 0.0530 0.9288
vn -0.8058 0.0481 0.5902
vn -0.4306 0.0414 0.9016
vn -0.7767 -0.0111 0.6297
vn -0.4419 0.0055 0.8971
vn -0.9931 -0.1175 -0.0000
vn -0.9954 -0.0959 -0.0000
vn -0.9428 -0.3334 -0.0000
vn -0.6328 -0.7743 -0.0000
vn -0.4785 -0.1558 0.8642
vn -0.4190 -0.1386 0.8973
vn -0.9343 -0.3565 -0.0000
vn -0.4102 -0.9120 -0.0000
vn -0.3427 -0.1617 0.9254
vn -0.2752 -0.0589 0.9596
vn -0.1428 -0.0756 0.9869
vn -0.9017 -0.4323 -0.0000
vn -0.3532 -0.9355 -0.0000
vn -0.2367 -0.2579 0.9367
vn -0.1314 -0.0995 0.9863
vn -0.0310 0.0143 0.9994
vn -0.0300 -0.0091 0.9995
vn -0.7880 -0.6156 -0.0000
vn -0.3497 -0.9369 -0.0000
vn -0.1832 -0.3615 0.9142
vn -0.1116 -0.1465 0.9829
vn -0.0053 0.0047 1.0000
vn -0.0132 0.0030 0.9999
vn -0.0249 -0.0084 0.9997
vn -0.2909 -0.9567 -0.0000
vn -0.1843 -0.4551 0.8711
vn -0.0876 -0.2980 0.9505
vn -0.0118 -0.0265 0.9996
vn -0.0008 0.0015 1.0000
vn -0.0095 -0.0104 0.9999
vn -0.0141 -0.0114 0.9998
vn -0.9908 -0.1351 -0.0000
vn -0.9632 -0.2686 -0.0000
vn -0.3592 -0.9333 -0.0000
vn -0.2817 -0.2661 0.9219
vn -0.0973 -0.1505 0.9838
vn -0.0021 -0.0099 0.9999
vn -0.0032 -0.0054 1.0000
vn -0.0043 -0.0132 0.9999
vn 0.0017 -0.0071 1.0000
vn -0.7043 -0.0838 0.7050
vn -0.3814 -0.0188 0.9242
vn -0.5206 -0.0091 0.8538
vn -0.3339 0.0776 0.9394
vn -0.2917 -0.0067 0.9565
vn -0.0663 0.0030 0.9978
vn -0.0081 -0.0107 0.9999
vn -0.0103 -0.0079 0.9999
vn -0.0051 -0.0066 1.0000
vn -0.0035 -0.0061 1.0000
vn -0.3744 -0.0552 -0.9256
vn -0.3877 -0.0363 -0.9211
vn -0.4062 0.0001 -0.9138
vn -0.4185 0.0534 -0.9066
vn -0.4250 0.1467 -0.8932
vn -0.4785 0.1773 -0.8600
vn -0.0372 -0.0525 -0.9979
vn -0.0241 -0.0452 -0.9987
vn -0.0286 -0.0161 -0.9995
vn -0.0483 0.0427 -0.9979
vn -0.1128 0.1038 -0.9882
vn -0.2455 0.0765 -0.9664
vn -0.3589 0.0663 -0.9310
vn -0.4314 0.2540 -0.8656
vn -0.0273 -0.0271 -0.9993
vn -0.0064 -0.0366 -0.9993
vn 0.0023 -0.0204 -0.9998
vn -0.0033 0.0216 -0.9998
vn -0.0263 0.0374 -0.9990
vn -0.0369 -0.0038 -0.9993
vn -0.0611 -0.0069 -0.9981
vn -0.2113 0.1206 -0.9700
vn -0.0283 -0.0082 -0.9996
vn -0.0185 -0.0248 -0.9995
vn -0.0122 -0.0172 -0.9998
vn -0.0166 0.0083 -0.9998
vn -0.0286 0.0158 -0.9995
vn -0.0352 0.0008 -0.9994
vn -0.0243 -0.0247 -0.9994
vn -0.0205 -0.0107 -0.9997
vn -0.0267 -0.0022 -0.9996
vn -0.0203 -0.0145 -0.9997
vn -0.0149 -0.0158 -0.9998
vn -0.0153 0.0021 -0.9999
vn -0.0146 0.0107 -0.9998
vn -0.0126 0.0013 -0.9999
vn -0.0104 -0.0122 -0.9999
vn -0.0062 -0.0153 -0.9999
vn -0.0079 0.0004 -1.0000
vn -0.0042 -0.0070 -1.0000
vn -0.0002 -0.0139 -0.9999
vn 0.0013 0.0012 -1.0000
vn -0.0000 0.0110 -0.9999
vn -0.0012 0.0019 -1.0000
vn 0.0004 -0.0089 -1.0000
vn 0.0047 -0.0100 -0.9999
vn 0.0020 0.0010 -1.0000
vn 0.0015 -0.0044 -1.0000
vn 0.0034 -0.0106 -0.9999
vn 0.0047 0.0007 -1.0000
vn 0.0033 0.0087 -1.0000
vn 0.0042 0.0038 -1.0000
vn 0.0088 -0.0046 -1.0000
vn 0.0130 -0.0057 -0.9999
vn -0.3314 0.3044 -0.8931
vn -0.1567 0.1810 -0.9709
vn -0.2799 0.4121 -0.8671
vn -0.0323 0.0240 -0.9992
vn -0.1099 0.3475 -0.9312
vn 0.0090 -0.0031 -1.0000
vn -0.0997 0.2077 -0.9731
vn -0.1811 0.4749 -0.8612
vn 0.0136 -0.0025 -0.9999
vn -0.0243 0.0633 -0.9977
vn -0.0729 0.4413 -0.8944
vn -0.9982 -0.0593 -0.0000
vn -0.9997 -0.0232 -0.0000
vn -0.9999 0.0151 -0.0000
vn -0.9985 0.0547 -0.0000
vn -0.9951 0.0987 -0.0000
vn -0.9923 0.1239 -0.0000
vn -0.3983 -0.0584 0.9154
vn -0.3966 -0.0230 0.9177
vn -0.4030 0.0009 0.9152
vn -0.3998 0.0632 0.9144
vn -0.4151 0.1357 0.8996
vn -0.6350 0.7725 -0.0000
vn -0.4884 0.1552 0.8587
vn -0.9592 0.2826 -0.0000
vn -0.9683 0.2498 -0.0000
vn -0.0631 -0.0392 0.9972
vn -0.0423 -0.0265 0.9988
vn -0.0393 -0.0008 0.9992
vn -0.0602 0.0519 0.9968
vn -0.1449 0.0644 0.9873
vn -0.2806 0.0556 0.9582
vn -0.3788 0.1059 0.9194
vn -0.5356 0.8445 -0.0000
vn -0.4277 0.2724 0.8619
vn -0.0211 -0.0164 0.9996
vn -0.0118 -0.0191 0.9997
vn -0.0093 -0.0026 1.0000
vn -0.0286 0.0136 0.9995
vn -0.0467 -0.0008 0.9989
vn -0.0385 -0.0138 0.9992
vn -0.0687 0.0380 0.9969
vn -0.2132 0.1653 0.9629
vn -0.0246 -0.0079 0.9997
vn -0.0183 -0.0120 0.9998
vn -0.0206 -0.0095 0.9997
vn -0.0237 -0.0019 0.9997
vn -0.0195 0.0007 0.9998
vn -0.0138 -0.0015 0.9999
vn -0.0105 -0.0013 0.9999
vn -0.0294 0.0396 0.9988
vn -0.0115 -0.0021 0.9999
vn -0.0118 -0.0119 0.9999
vn -0.0167 -0.0168 0.9997
vn -0.0214 -0.0025 0.9998
vn -0.0209 0.0061 0.9998
vn -0.0131 0.0066 0.9999
vn -0.0066 0.0005 1.0000
vn -0.0117 0.0138 0.9998
vn -0.0022 -0.0076 1.0000
vn -0.0110 -0.0156 0.9998
vn -0.0123 -0.0192 0.9997
vn -0.0118 -0.0044 0.9999
vn -0.0116 0.0087 0.9999
vn -0.0080 0.0154 0.9998
vn -0.0030 0.0031 1.0000
vn 0.0015 0.0105 0.9999
vn -0.0076 -0.0166 0.9998
vn -0.0078 -0.0156 0.9998
vn -0.0014 -0.0141 0.9999
vn 0.0045 -0.0031 1.0000
vn 0.0069 0.0099 0.9999
vn 0.0062 0.0173 0.9998
vn 0.0045 0.0045 1.0000
vn 0.0006 0.0099 1.0000
vn -0.9001 0.4358 -0.0000
vn -0.4459 0.8951 -0.0000
vn -0.3187 0.2998 0.8992
vn -0.8635 0.5043 -0.0000
vn -0.1666 0.1866 0.9682
vn -0.2786 0.9604 -0.0000
vn -0.2786 0.3829 0.8808
vn -0.0466 0.0409 0.9981
vn -0.2815 0.9596 -0.0000
vn -0.1157 0.3296 0.9370
vn -0.8411 0.5409 -0.0000
vn 0.0085 0.0162 0.9998
vn -0.0906 0.2029 0.9750
vn -0.1244 0.9922 -0.0000
vn -0.1698 0.4584 0.8723
vn -0.0033 0.0198 0.9998
vn -0.0320 0.0741 0.9967
vn -0.0694 0.9976 -0.0000
vn -0.0701 0.4254 0.9023
vn 0.0096 -0.9430 -0.3326
vn 0.0063 -0.0867 -0.9962
vn 0.0048 0.0457 -0.9989
vn 0.0011 0.0016 -1.0000
vn 0.1683 0.0389 -0.9850
vn -0.0000 0.0016 -1.0000
vn 0.2243 0.0395 -0.9737
vn -0.0000 -0.0001 -1.0000
vn 0.2978 0.0339 -0.9540
vn -0.0000 0.0029 -1.0000
vn 0.3531 0.0250 -0.9353
vn -0.0000 0.0026 -1.0000
vn 0.3650 0.0017 -0.9310
vn 0.1580 -0.9520 -0.2623
vn 0.0964 -0.0486 -0.9942
vn 0.9249 -0.1293 -0.3576
vn 0.1348 0.0324 -0.9904
vn 0.8895 0.0529 -0.4539
vn 0.5989 0.0634 -0.7983
vn 0.8795 0.0822 -0.4687
vn 0.8526 0.0695 -0.5179
vn 0.8254 0.0529 -0.5621
vn 0.8108 0.0350 -0.5842
vn 0.7915 -0.0108 -0.6111
vn -0.0000 0.0071 -1.0000
vn 0.3130 -0.0188 -0.9496
vn -0.0000 0.0360 -0.9994
vn 0.2823 0.0886 -0.9552
vn -0.0081 0.3789 -0.9254
vn -0.0077 0.1543 -0.9880
vn -0.0033 0.0548 -0.9985
vn -0.0028 -0.0081 -1.0000
vn -0.0010 0.0057 -1.0000
vn 0.0044 0.0094 -0.9999
vn 0.0058 0.0028 -1.0000
vn 0.7246 -0.0814 -0.6843
vn 0.5304 0.0191 -0.8475
vn 0.2898 -0.0118 -0.9570
vn 0.0629 -0.0050 -0.9980
vn 0.0034 -0.0074 -1.0000
vn 0.0050 0.0085 -1.0000
vn 0.0060 0.0130 -0.9999
vn 0.0057 0.0004 -1.0000
vn 0.2881 -0.2735 -0.9177
vn 0.1034 -0.1537 -0.9827
vn 0.0099 -0.0109 -0.9999
vn 0.0059 0.0096 -0.9999
vn 0.0049 0.0118 -0.9999
vn 0.0039 0.0003 -1.0000
vn 0.1954 -0.4653 -0.8633
vn 0.0939 -0.3016 -0.9488
vn 0.0194 -0.0243 -0.9995
vn 0.0118 0.0114 -0.9999
vn 0.0134 0.0106 -0.9999
vn 0.0108 -0.0020 -0.9999
vn 0.1873 -0.3660 -0.9116
vn 0.1205 -0.1418 -0.9825
vn 0.0141 0.0153 -0.9998
vn 0.0197 0.0138 -0.9997
vn 0.0159 -0.0117 -0.9998
vn 0.2277 -0.2953 -0.9279
vn 0.0813 -0.0546 -0.9952
vn 0.0071 0.0150 -0.9999
vn 0.0034 -0.0204 -0.9998
vn 0.4145 -0.3776 -0.8280
vn 0.3581 -0.1739 -0.9173
vn 0.2242 -0.0822 -0.9711
vn 0.0882 -0.0662 -0.9939
vn 0.4717 -0.1739 -0.8645
vn 0.4263 -0.1167 -0.8970
vn 0.0062 -0.9998 -0.0166
vn -0.0012 -0.9466 0.3225
vn -0.0071 -0.1197 0.9928
vn -0.0130 0.0359 0.9993
vn -0.0120 0.0507 0.9986
vn 0.2170 0.0532 0.9747
vn -0.0025 -0.0057 1.0000
vn 0.2877 0.0510 0.9564
vn -0.0000 0.0069 1.0000
vn 0.3462 0.0330 0.9376
vn -0.0000 0.0075 1.0000
vn 0.3564 0.0074 0.9343
vn -0.0000 0.0057 1.0000
vn 0.2256 -0.9740 -0.0192
vn 0.1630 -0.9546 0.2494
vn 0.9666 -0.2547 -0.0290
vn 0.9274 -0.1561 0.3401
vn 0.1161 -0.0810 0.9899
vn 0.9947 0.0856 -0.0566
vn 0.8993 0.0570 0.4336
vn 0.1637 0.0350 0.9859
vn 0.9972 0.0708 -0.0242
vn 0.9066 0.0666 0.4166
vn 0.6303 0.0698 0.7732
vn 0.1701 0.0401 0.9846
vn 0.9997 0.0163 0.0164
vn 0.8938 0.0855 0.4403
vn 0.9997 0.0238 -0.0000
vn 0.8568 0.0708 0.5107
vn 0.9999 0.0161 -0.0000
vn 0.8266 0.0419 0.5612
vn 0.9997 -0.0264 -0.0000
vn 0.7989 -0.0057 0.6015
vn 0.3074 -0.0134 0.9515
vn -0.0000 0.0078 1.0000
vn 0.2805 0.0871 0.9559
vn -0.0117 0.3800 0.9249
vn -0.0000 0.0354 0.9994
vn -0.0123 0.1698 0.9854
vn -0.0089 0.0646 0.9979
vn -0.0120 -0.0172 0.9998
vn -0.0099 -0.0013 1.0000
vn -0.0013 0.0005 1.0000
vn 0.0028 -0.0076 1.0000
vn 0.9907 -0.1360 -0.0000
vn 0.7258 -0.0748 0.6839
vn 0.9654 -0.2609 -0.0000
vn 0.5293 0.0176 0.8482
vn 0.2880 0.0029 0.9576
vn 0.0575 0.0017 0.9983
vn -0.0051 -0.0200 0.9998
vn -0.0047 0.0040 1.0000
vn -0.0008 0.0075 1.0000
vn 0.0087 -0.0010 1.0000
vn 0.3560 -0.9345 -0.0000
vn 0.2860 -0.2625 0.9216
vn 0.0957 -0.1528 0.9836
vn -0.0003 -0.0232 0.9997
vn -0.0022 0.0058 1.0000
vn 0.0011 0.0130 0.9999
vn 0.0073 0.0092 0.9999
vn 0.3070 -0.9517 -0.0000
vn 0.7939 -0.6081 -0.0000
vn 0.1943 -0.4551 0.8690
vn 0.0928 -0.3044 0.9480
vn 0.0120 -0.0410 0.9991
vn -0.0023 0.0073 1.0000
vn 0.0016 0.0186 0.9998
vn 0.0013 0.0096 1.0000
vn 0.3430 -0.9393 -0.0000
vn 0.9046 -0.4262 -0.0000
vn 0.1869 -0.3724 0.9091
vn 0.1161 -0.1627 0.9798
vn 0.0017 0.0014 1.0000
vn -0.0043 0.0224 0.9997
vn -0.0043 0.0056 1.0000
vn 0.3578 -0.9338 -0.0000
vn 0.2303 -0.3112 0.9220
vn 0.0796 -0.0842 0.9933
vn -0.0020 0.0203 0.9998
vn -0.0020 0.0078 1.0000
vn 0.4341 -0.9008 -0.0000
vn 0.9489 -0.3157 -0.0000
vn 0.4217 -0.3897 0.8187
vn 0.9455 -0.3258 -0.0000
vn 0.3756 -0.1976 0.9055
vn 0.2472 -0.0829 0.9654
vn 0.1001 -0.0411 0.9941
vn 0.5974 -0.8019 -0.0000
vn 0.9913 -0.1314 -0.0000
vn 0.4993 -0.1807 0.8474
vn 0.9950 -0.0994 -0.0000
vn 0.4417 -0.1076 0.8907
vn 0.0012 -0.0024 -1.0000
vn -0.0018 -0.0045 -1.0000
vn 0.0005 -0.0063 -1.0000
vn 0.0052 0.0024 -1.0000
vn 0.0099 0.0102 -0.9999
vn 0.0137 0.0070 -0.9999
vn 0.0152 -0.0017 -0.9999
vn 0.0137 -0.0060 -0.9999
vn 0.0057 -0.0047 -1.0000
vn 0.0068 -0.0040 -1.0000
vn 0.0081 -0.0031 -1.0000
vn 0.0080 0.0039 -1.0000
vn 0.0070 0.0123 -0.9999
vn 0.0075 0.0091 -0.9999
vn 0.0078 -0.0018 -1.0000
vn 0.0037 -0.0115 -0.9999
vn 0.0069 -0.0017 -1.0000
vn 0.0102 -0.0026 -0.9999
vn 0.0101 -0.0033 -0.9999
vn 0.0056 -0.0004 -1.0000
vn -0.0017 0.0082 -1.0000
vn -0.0052 0.0103 -0.9999
vn -0.0011 0.0015 -1.0000
vn -0.0006 -0.0184 -0.9998
vn 0.0068 -0.0003 -1.0000
vn 0.0070 -0.0006 -1.0000
vn 0.0081 -0.0042 -1.0000
vn 0.0061 -0.0061 -1.0000
vn -0.0015 -0.0012 -1.0000
vn -0.0101 0.0076 -0.9999
vn -0.0060 0.0124 -0.9999
vn 0.0049 -0.0179 -0.9998
vn 0.0096 -0.0008 -1.0000
vn 0.0107 0.0012 -0.9999
vn 0.0114 -0.0042 -0.9999
vn 0.0129 -0.0067 -0.9999
vn 0.0113 -0.0097 -0.9999
vn 0.0076 0.0038 -1.0000
vn 0.0041 0.0168 -0.9999
vn 0.0102 -0.0054 -0.9999
vn 0.0043 0.0025 -1.0000
vn 0.0056 0.0004 -1.0000
vn 0.0043 -0.0039 -1.0000
vn 0.0084 -0.0014 -1.0000
vn 0.0114 -0.0135 -0.9998
vn 0.0031 -0.0045 -1.0000
vn 0.0191 0.0376 -0.9991
vn 0.1687 0.1303 -0.9770
vn 0.0225 -0.0166 -0.9996
vn -0.0024 -0.0040 -1.0000
vn 0.0022 0.0039 -1.0000
vn 0.0262 0.0188 -0.9995
vn 0.0876 0.0309 -0.9957
vn 0.2239 0.0828 -0.9711
vn 0.3405 0.0971 -0.9352
vn 0.4027 0.2579 -0.8782
vn 0.3931 -0.0483 -0.9182
vn 0.3763 -0.0090 -0.9265
vn 0.3778 0.0145 -0.9258
vn 0.3928 0.0421 -0.9187
vn 0.4315 0.0930 -0.8973
vn 0.4907 0.1698 -0.8546
vn 0.0080 -0.0072 -0.9999
vn 0.0009 0.0231 -0.9997
vn -0.0026 0.4217 -0.9067
vn -0.0036 -0.0148 -0.9999
vn 0.0196 0.0467 -0.9987
vn 0.0581 0.4389 -0.8966
vn -0.0119 -0.0266 -0.9996
vn 0.0944 0.1860 -0.9780
vn 0.1742 0.4685 -0.8661
vn 0.0244 -0.0190 -0.9995
vn 0.0924 0.3319 -0.9388
vn 0.1545 0.1328 -0.9790
vn 0.2749 0.3944 -0.8769
vn 0.3060 0.2780 -0.9105
vn 0.0071 -0.0148 0.9999
vn 0.0142 -0.0105 0.9998
vn 0.0190 -0.0079 0.9998
vn 0.0196 -0.0028 0.9998
vn 0.0153 0.0077 0.9999
vn 0.0081 0.0117 0.9999
vn 0.0018 0.0020 1.0000
vn -0.0071 -0.0004 1.0000
vn 0.0219 -0.0038 0.9998
vn 0.0299 -0.0066 0.9995
vn 0.0270 -0.0100 0.9996
vn 0.0147 -0.0125 0.9998
vn 0.0007 -0.0008 1.0000
vn -0.0060 0.0064 1.0000
vn -0.0064 0.0005 1.0000
vn -0.0046 -0.0060 1.0000
vn 0.0127 0.0047 0.9999
vn 0.0157 -0.0041 0.9999
vn 0.0165 -0.0146 0.9998
vn 0.0101 -0.0266 0.9996
vn -0.0008 -0.0116 0.9999
vn -0.0052 0.0060 1.0000
vn -0.0022 0.0035 1.0000
vn 0.0021 -0.0029 1.0000
vn -0.0051 0.0033 1.0000
vn -0.0044 0.0010 1.0000
vn 0.0043 -0.0103 0.9999
vn 0.0086 -0.0330 0.9994
vn 0.0036 -0.0210 0.9998
vn -0.0024 0.0049 1.0000
vn -0.0021 0.0078 1.0000
vn 0.0031 0.0023 1.0000
vn -0.0039 0.0011 1.0000
vn -0.0018 0.0060 1.0000
vn 0.0017 -0.0033 1.0000
vn 0.0048 -0.0326 0.9995
vn 0.0047 -0.0264 0.9996
vn 0.0071 0.0067 1.0000
vn 0.0102 0.0095 0.9999
vn 0.0216 0.0172 0.9996
vn 0.0044 0.0058 1.0000
vn 0.0074 0.0065 1.0000
vn -0.0013 -0.0090 1.0000
vn -0.0091 -0.0316 0.9995
vn 0.0001 -0.0183 0.9998
vn 0.0119 0.0127 0.9998
vn 0.0477 0.0425 0.9980
vn 0.1980 0.1472 0.9691
vn 0.0360 -0.0035 0.9993
vn 0.0179 0.0006 0.9998
vn 0.0086 -0.0210 0.9997
vn 0.0277 -0.0083 0.9996
vn 0.1107 0.0512 0.9925
vn 0.2539 0.1031 0.9617
vn 0.9613 0.2755 -0.0000
vn 0.3605 0.1066 0.9267
vn 0.9666 0.2561 -0.0000
vn 0.5136 0.8580 -0.0000
vn 0.4136 0.2632 0.8716
vn 0.9984 -0.0565 -0.0000
vn 0.3984 -0.0294 0.9167
vn 0.9998 -0.0189 -0.0000
vn 0.3773 -0.0091 0.9261
vn 0.9999 0.0171 -0.0000
vn 0.3837 -0.0125 0.9234
vn 0.9984 0.0561 -0.0000
vn 0.4165 0.0329 0.9085
vn 0.9954 0.0962 -0.0000
vn 0.4589 0.1192 0.8804
vn 0.9922 0.1244 -0.0000
vn 0.5925 0.8055 -0.0000
vn 0.5084 0.1791 0.8423
vn -0.0147 0.0185 0.9997
vn -0.0097 0.0518 0.9986
vn -0.0014 1.0000 -0.0000
vn -0.0038 0.4082 0.9129
vn -0.0007 0.0206 0.9998
vn 0.0254 0.0805 0.9964
vn 0.0655 0.9979 -0.0000
vn 0.0567 0.4218 0.9049
vn 0.0011 0.0204 0.9998
vn 0.0985 0.2018 0.9745
vn 0.8486 0.5290 -0.0000
vn 0.1200 0.9928 -0.0000
vn 0.1688 0.4436 0.8802
vn 0.0312 0.0422 0.9986
vn 0.2729 0.9621 -0.0000
vn 0.1067 0.3343 0.9364
vn 0.1529 0.1858 0.9706
vn 0.8707 0.4919 -0.0000
vn 0.2734 0.9619 -0.0000
vn 0.2636 0.3989 0.8783
vn 0.9057 0.4239 -0.0000
vn 0.4306 0.9025 -0.0000
vn 0.3132 0.3004 0.9009
s 0
usemtl TT_Racket_mtl.002
f 4//1 3//1 1//1 2//1
f 6//2 5//2 3//2 4//2
f 13//3 2//3 1//3 12//3
f 3//4 14//4 12//4 1//4
f 5//5 15//5 14//5 3//5
f 6//6 16//6 15//6 5//6
f 18//7 17//7 15//7 16//7
f 7//8 18//8 16//8 6//8
f 20//9 19//9 17//9 18//9
f 8//10 20//10 18//10 7//10
f 22//11 21//11 19//11 20//11
f 9//12 22//12 20//12 8//12
f 24//13 23//13 21//13 22//13
f 10//14 24//14 22//14 9//14
f 26//15 25//15 23//15 24//15
f 11//16 26//16 24//16 10//16
f 28//17 32//17 31//17 27//17
f 29//18 33//18 32//18 28//18
f 31//19 36//19 35//19 30//19
f 32//20 37//20 36//20 31//20
f 33//21 38//21 37//21 32//21
f 35//22 41//22 40//22 34//22
f 36//23 42//23 41//23 35//23
f 37//24 43//24 42//24 36//24
f 38//25 44//25 43//25 37//25
f 40//26 47//26 46//26 39//26
f 41//27 48//27 47//27 40//27
f 42//28 49//28 48//28 41//28
f 43//29 50//29 49//29 42//29
f 44//30 51//30 50//30 43//30
f 46//31 53//31 52//31 45//31
f 47//32 54//32 53//32 46//32
f 48//33 55//33 54//33 47//33
f 49//34 56//34 55//34 48//34
f 50//35 57//35 56//35 49//35
f 51//36 58//36 57//36 50//36
f 53//37 61//37 60//37 52//37
f 54//38 62//38 61//38 53//38
f 55//39 63//39 62//39 54//39
f 56//40 64//40 63//40 55//40
f 57//41 65//41 64//41 56//41
f 58//42 66//42 65//42 57//42
f 68//43 67//43 25//43 26//43
f 59//44 68//44 26//44 11//44
f 70//45 69//45 67//45 68//45
f 60//46 70//46 68//46 59//46
f 61//47 71//47 70//47 60//47
f 62//48 72//48 71//48 61//48
f 63//49 73//49 72//49 62//49
f 64//50 74//50 73//50 63//50
f 65//51 75//51 74//51 64//51
f 66//52 76//52 75//52 65//52
f 79//53 4//53 2//53 77//53
f 80//54 79//54 77//54 78//54
f 81//55 6//55 4//55 79//55
f 82//56 81//56 79//56 80//56
f 83//57 7//57 6//57 81//57
f 84//58 83//58 81//58 82//58
f 85//59 8//59 7//59 83//59
f 86//60 9//60 8//60 85//60
f 87//61 10//61 9//61 86//61
f 88//62 11//62 10//62 87//62
f 89//63 77//63 2//63 13//63
f 90//64 78//64 77//64 89//64
f 91//65 80//65 78//65 90//65
f 92//66 82//66 80//66 91//66
f 84//67 94//67 93//67 83//67
f 94//68 84//68 82//68 92//68
f 95//69 85//69 83//69 93//69
f 96//70 95//70 93//70 94//70
f 97//71 86//71 85//71 95//71
f 98//72 97//72 95//72 96//72
f 99//73 87//73 86//73 97//73
f 100//74 99//74 97//74 98//74
f 101//75 88//75 87//75 99//75
f 102//76 101//76 99//76 100//76
f 104//77 28//77 27//77 103//77
f 105//78 29//78 28//78 104//78
f 107//79 31//79 30//79 106//79
f 107//80 103//80 27//80 31//80
f 108//81 104//81 103//81 107//81
f 109//82 105//82 104//82 108//82
f 111//83 35//83 34//83 110//83
f 111//84 106//84 30//84 35//84
f 112//85 107//85 106//85 111//85
f 113//86 108//86 107//86 112//86
f 114//87 109//87 108//87 113//87
f 116//88 40//88 39//88 115//88
f 116//89 110//89 34//89 40//89
f 117//90 111//90 110//90 116//90
f 118//91 112//91 111//91 117//91
f 119//92 113//92 112//92 118//92
f 120//93 114//93 113//93 119//93
f 122//94 46//94 45//94 121//94
f 122//95 115//95 39//95 46//95
f 123//96 116//96 115//96 122//96
f 124//97 117//97 116//97 123//97
f 125//98 118//98 117//98 124//98
f 126//99 119//99 118//99 125//99
f 127//100 120//100 119//100 126//100
f 128//101 121//101 45//101 52//101
f 129//102 122//102 121//102 128//102
f 130//103 123//103 122//103 129//103
f 131//104 124//104 123//104 130//104
f 132//105 125//105 124//105 131//105
f 133//106 126//106 125//106 132//106
f 134//107 127//107 126//107 133//107
f 135//108 59//108 11//108 88//108
f 136//109 60//109 59//109 135//109
f 136//110 128//110 52//110 60//110
f 137//111 129//111 128//111 136//111
f 138//112 130//112 129//112 137//112
f 139//113 131//113 130//113 138//113
f 140//114 132//114 131//114 139//114
f 141//115 133//115 132//115 140//115
f 142//116 134//116 133//116 141//116
f 143//117 135//117 88//117 101//117
f 144//118 143//118 101//118 102//118
f 145//119 136//119 135//119 143//119
f 146//120 145//120 143//120 144//120
f 147//121 137//121 136//121 145//121
f 148//122 138//122 137//122 147//122
f 149//123 139//123 138//123 148//123
f 150//124 140//124 139//124 149//124
f 151//125 141//125 140//125 150//125
f 152//126 142//126 141//126 151//126
f 153//127 159//127 33//127 29//127
f 154//128 160//128 159//128 153//128
f 155//129 161//129 160//129 154//129
f 156//130 162//130 161//130 155//130
f 157//131 163//131 162//131 156//131
f 158//132 164//132 163//132 157//132
f 159//133 167//133 38//133 33//133
f 160//134 168//134 167//134 159//134
f 161//135 169//135 168//135 160//135
f 162//136 170//136 169//136 161//136
f 163//137 171//137 170//137 162//137
f 164//138 172//138 171//138 163//138
f 165//139 173//139 172//139 164//139
f 166//140 174//140 173//140 165//140
f 167//141 175//141 44//141 38//141
f 168//142 176//142 175//142 167//142
f 169//143 177//143 176//143 168//143
f 170//144 178//144 177//144 169//144
f 171//145 179//145 178//145 170//145
f 172//146 180//146 179//146 171//146
f 173//147 181//147 180//147 172//147
f 174//148 182//148 181//148 173//148
f 175//149 183//149 51//149 44//149
f 176//150 184//150 183//150 175//150
f 177//151 185//151 184//151 176//151
f 178//152 186//152 185//152 177//152
f 179//153 187//153 186//153 178//153
f 180//154 188//154 187//154 179//154
f 181//155 189//155 188//155 180//155
f 182//156 190//156 189//156 181//156
f 183//157 191//157 58//157 51//157
f 184//158 192//158 191//158 183//158
f 185//159 193//159 192//159 184//159
f 186//160 194//160 193//160 185//160
f 187//161 195//161 194//161 186//161
f 188//162 196//162 195//162 187//162
f 189//163 197//163 196//163 188//163
f 190//164 198//164 197//164 189//164
f 191//165 199//165 66//165 58//165
f 192//166 200//166 199//166 191//166
f 193//167 201//167 200//167 192//167
f 194//168 202//168 201//168 193//168
f 195//169 203//169 202//169 194//169
f 196//170 204//170 203//170 195//170
f 197//171 205//171 204//171 196//171
f 198//172 206//172 205//172 197//172
f 199//173 207//173 76//173 66//173
f 200//174 208//174 207//174 199//174
f 201//175 209//175 208//175 200//175
f 202//176 210//176 209//176 201//176
f 203//177 211//177 210//177 202//177
f 204//178 212//178 211//178 203//178
f 205//179 213//179 212//179 204//179
f 206//180 214//180 213//180 205//180
f 215//181 216//181 182//181 174//181
f 216//182 218//182 190//182 182//182
f 217//183 219//183 218//183 216//183
f 218//184 220//184 198//184 190//184
f 219//185 221//185 220//185 218//185
f 220//186 223//186 206//186 198//186
f 221//187 224//187 223//187 220//187
f 222//188 225//188 224//188 221//188
f 223//189 226//189 214//189 206//189
f 224//190 227//190 226//190 223//190
f 225//191 228//191 227//191 224//191
f 229//192 153//192 29//192 105//192
f 230//193 154//193 153//193 229//193
f 231//194 155//194 154//194 230//194
f 232//195 156//195 155//195 231//195
f 233//196 157//196 156//196 232//196
f 234//197 158//197 157//197 233//197
f 235//198 229//198 105//198 109//198
f 236//199 230//199 229//199 235//199
f 237//200 231//200 230//200 236//200
f 238//201 232//201 231//201 237//201
f 239//202 233//202 232//202 238//202
f 234//203 240//203 164//203 158//203
f 240//204 234//204 233//204 239//204
f 241//205 165//205 164//205 240//205
f 242//206 166//206 165//206 241//206
f 243//207 235//207 109//207 114//207
f 244//208 236//208 235//208 243//208
f 245//209 237//209 236//209 244//209
f 246//210 238//210 237//210 245//210
f 247//211 239//211 238//211 246//211
f 248//212 240//212 239//212 247//212
f 249//213 241//213 240//213 248//213
f 242//214 250//214 174//214 166//214
f 250//215 242//215 241//215 249//215
f 251//216 243//216 114//216 120//216
f 252//217 244//217 243//217 251//217
f 253//218 245//218 244//218 252//218
f 254//219 246//219 245//219 253//219
f 255//220 247//220 246//220 254//220
f 256//221 248//221 247//221 255//221
f 257//222 249//222 248//222 256//222
f 258//223 250//223 249//223 257//223
f 259//224 251//224 120//224 127//224
f 260//225 252//225 251//225 259//225
f 261//226 253//226 252//226 260//226
f 262//227 254//227 253//227 261//227
f 263//228 255//228 254//228 262//228
f 264//229 256//229 255//229 263//229
f 265//230 257//230 256//230 264//230
f 266//231 258//231 257//231 265//231
f 267//232 259//232 127//232 134//232
f 268//233 260//233 259//233 267//233
f 269//234 261//234 260//234 268//234
f 270//235 262//235 261//235 269//235
f 271//236 263//236 262//236 270//236
f 272//237 264//237 263//237 271//237
f 273//238 265//238 264//238 272//238
f 274//239 266//239 265//239 273//239
f 275//240 267//240 134//240 142//240
f 276//241 268//241 267//241 275//241
f 277//242 269//242 268//242 276//242
f 278//243 270//243 269//243 277//243
f 279//244 271//244 270//244 278//244
f 280//245 272//245 271//245 279//245
f 281//246 273//246 272//246 280//246
f 282//247 274//247 273//247 281//247
f 283//248 275//248 142//248 152//248
f 284//249 276//249 275//249 283//249
f 285//250 277//250 276//250 284//250
f 286//251 278//251 277//251 285//251
f 287//252 279//252 278//252 286//252
f 288//253 280//253 279//253 287//253
f 289//254 281//254 280//254 288//254
f 290//255 282//255 281//255 289//255
f 291//256 215//256 174//256 250//256
f 291//257 292//257 216//257 215//257
f 292//258 291//258 250//258 258//258
f 293//259 217//259 216//259 292//259
f 294//260 292//260 258//260 266//260
f 293//261 295//261 219//261 217//261
f 295//262 293//262 292//262 294//262
f 296//263 294//263 266//263 274//263
f 295//264 297//264 221//264 219//264
f 297//265 295//265 294//265 296//265
f 298//266 222//266 221//266 297//266
f 299//267 296//267 274//267 282//267
f 300//268 297//268 296//268 299//268
f 298//269 301//269 225//269 222//269
f 301//270 298//270 297//270 300//270
f 302//271 299//271 282//271 290//271
f 303//272 300//272 299//272 302//272
f 301//273 304//273 228//273 225//273
f 304//274 301//274 300//274 303//274
f 306//275 13//275 12//275 305//275
f 14//276 307//276 305//276 12//276
f 15//277 308//277 307//277 14//277
f 17//278 310//278 308//278 15//278
f 310//279 311//279 309//279 308//279
f 19//280 312//280 310//280 17//280
f 312//281 313//281 311//281 310//281
f 21//282 314//282 312//282 19//282
f 314//283 315//283 313//283 312//283
f 23//284 316//284 314//284 21//284
f 316//285 317//285 315//285 314//285
f 25//286 318//286 316//286 23//286
f 318//287 319//287 317//287 316//287
f 321//288 306//288 305//288 320//288
f 307//289 322//289 320//289 305//289
f 322//290 323//290 321//290 320//290
f 308//291 324//291 322//291 307//291
f 324//292 325//292 323//292 322//292
f 309//293 325//293 324//293 308//293
f 311//294 326//294 325//294 309//294
f 313//295 327//295 326//295 311//295
f 315//296 328//296 327//296 313//296
f 317//297 329//297 328//297 315//297
f 319//298 330//298 329//298 317//298
f 67//299 331//299 318//299 25//299
f 331//300 332//300 319//300 318//300
f 69//301 333//301 331//301 67//301
f 333//302 334//302 332//302 331//302
f 70//303 334//303 333//303 69//303
f 71//304 335//304 334//304 70//304
f 72//305 336//305 335//305 71//305
f 73//306 337//306 336//306 72//306
f 74//307 338//307 337//307 73//307
f 75//308 339//308 338//308 74//308
f 76//309 340//309 339//309 75//309
f 332//310 341//310 330//310 319//310
f 334//311 342//311 341//311 332//311
f 335//312 343//312 342//312 334//312
f 336//313 344//313 343//313 335//313
f 337//314 345//314 344//314 336//314
f 338//315 346//315 345//315 337//315
f 339//316 347//316 346//316 338//316
f 340//317 348//317 347//317 339//317
f 343//318 350//318 349//318 342//318
f 344//319 351//319 350//319 343//319
f 345//320 352//320 351//320 344//320
f 346//321 353//321 352//321 345//321
f 347//322 354//322 353//322 346//322
f 348//323 355//323 354//323 347//323
f 350//324 357//324 356//324 349//324
f 351//325 358//325 357//325 350//325
f 352//326 359//326 358//326 351//326
f 353//327 360//327 359//327 352//327
f 354//328 361//328 360//328 353//328
f 355//329 362//329 361//329 354//329
f 358//330 364//330 363//330 357//330
f 359//331 365//331 364//331 358//331
f 360//332 366//332 365//332 359//332
f 361//333 367//333 366//333 360//333
f 362//334 368//334 367//334 361//334
f 365//335 370//335 369//335 364//335
f 366//336 371//336 370//336 365//336
f 367//337 372//337 371//337 366//337
f 368//338 373//338 372//338 367//338
f 370//339 375//339 374//339 369//339
f 371//340 376//340 375//340 370//340
f 372//341 377//341 376//341 371//341
f 373//342 378//342 377//342 372//342
f 377//343 380//343 379//343 376//343
f 378//344 381//344 380//344 377//344
f 382//345 89//345 13//345 306//345
f 383//346 90//346 89//346 382//346
f 384//347 91//347 90//347 383//347
f 385//348 92//348 91//348 384//348
f 387//349 94//349 92//349 385//349
f 388//350 389//350 387//350 386//350
f 389//351 96//351 94//351 387//351
f 390//352 391//352 389//352 388//352
f 391//353 98//353 96//353 389//353
f 392//354 393//354 391//354 390//354
f 393//355 100//355 98//355 391//355
f 394//356 395//356 393//356 392//356
f 395//357 102//357 100//357 393//357
f 396//358 382//358 306//358 321//358
f 397//359 383//359 382//359 396//359
f 323//360 398//360 396//360 321//360
f 398//361 399//361 397//361 396//361
f 399//362 384//362 383//362 397//362
f 325//363 400//363 398//363 323//363
f 400//364 401//364 399//364 398//364
f 401//365 385//365 384//365 399//365
f 326//366 402//366 400//366 325//366
f 402//367 403//367 401//367 400//367
f 387//368 403//368 402//368 386//368
f 403//369 387//369 385//369 401//369
f 327//370 404//370 402//370 326//370
f 404//371 388//371 386//371 402//371
f 328//372 405//372 404//372 327//372
f 405//373 390//373 388//373 404//373
f 329//374 406//374 405//374 328//374
f 406//375 392//375 390//375 405//375
f 330//376 407//376 406//376 329//376
f 407//377 394//377 392//377 406//377
f 408//378 409//378 395//378 394//378
f 409//379 144//379 102//379 395//379
f 410//380 411//380 409//380 408//380
f 146//381 411//381 410//381 145//381
f 411//382 146//382 144//382 409//382
f 412//383 147//383 145//383 410//383
f 413//384 148//384 147//384 412//384
f 414//385 149//385 148//385 413//385
f 415//386 150//386 149//386 414//386
f 416//387 151//387 150//387 415//387
f 417//388 152//388 151//388 416//388
f 341//389 418//389 407//389 330//389
f 418//390 408//390 394//390 407//390
f 342//391 419//391 418//391 341//391
f 419//392 410//392 408//392 418//392
f 420//393 412//393 410//393 419//393
f 421//394 413//394 412//394 420//394
f 422//395 414//395 413//395 421//395
f 423//396 415//396 414//396 422//396
f 424//397 416//397 415//397 423//397
f 425//398 417//398 416//398 424//398
f 426//399 419//399 342//399 349//399
f 427//400 420//400 419//400 426//400
f 428//401 421//401 420//401 427//401
f 429//402 422//402 421//402 428//402
f 430//403 423//403 422//403 429//403
f 431//404 424//404 423//404 430//404
f 432//405 425//405 424//405 431//405
f 433//406 426//406 349//406 356//406
f 357//407 434//407 433//407 356//407
f 434//408 427//408 426//408 433//408
f 435//409 428//409 427//409 434//409
f 436//410 429//410 428//410 435//410
f 437//411 430//411 429//411 436//411
f 438//412 431//412 430//412 437//412
f 439//413 432//413 431//413 438//413
f 440//414 434//414 357//414 363//414
f 364//415 441//415 440//415 363//415
f 441//416 435//416 434//416 440//416
f 442//417 436//417 435//417 441//417
f 443//418 437//418 436//418 442//418
f 444//419 438//419 437//419 443//419
f 445//420 439//420 438//420 444//420
f 446//421 441//421 364//421 369//421
f 447//422 442//422 441//422 446//422
f 448//423 443//423 442//423 447//423
f 449//424 444//424 443//424 448//424
f 450//425 445//425 444//425 449//425
f 451//426 446//426 369//426 374//426
f 375//427 452//427 451//427 374//427
f 452//428 447//428 446//428 451//428
f 376//429 453//429 452//429 375//429
f 453//430 448//430 447//430 452//430
f 454//431 449//431 448//431 453//431
f 455//432 450//432 449//432 454//432
f 456//433 453//433 376//433 379//433
f 380//434 457//434 456//434 379//434
f 457//435 454//435 453//435 456//435
f 381//436 458//436 457//436 380//436
f 458//437 455//437 454//437 457//437
f 207//438 459//438 340//438 76//438
f 208//439 460//439 459//439 207//439
f 209//440 461//440 460//440 208//440
f 210//441 462//441 461//441 209//441
f 211//442 463//442 462//442 210//442
f 212//443 464//443 463//443 211//443
f 213//444 465//444 464//444 212//444
f 214//445 466//445 465//445 213//445
f 459//446 467//446 348//446 340//446
f 460//447 468//447 467//447 459//447
f 461//448 469//448 468//448 460//448
f 462//449 470//449 469//449 461//449
f 463//450 471//450 470//450 462//450
f 464//451 472//451 471//451 463//451
f 465//452 473//452 472//452 464//452
f 466//453 474//453 473//453 465//453
f 467//454 475//454 355//454 348//454
f 468//455 476//455 475//455 467//455
f 469//456 477//456 476//456 468//456
f 470//457 478//457 477//457 469//457
f 471//458 479//458 478//458 470//458
f 472//459 480//459 479//459 471//459
f 473//460 481//460 480//460 472//460
f 474//461 482//461 481//461 473//461
f 475//462 483//462 362//462 355//462
f 476//463 484//463 483//463 475//463
f 477//464 485//464 484//464 476//464
f 478//465 486//465 485//465 477//465
f 479//466 487//466 486//466 478//466
f 480//467 488//467 487//467 479//467
f 481//468 489//468 488//468 480//468
f 482//469 490//469 489//469 481//469
f 483//470 491//470 368//470 362//470
f 484//471 492//471 491//471 483//471
f 485//472 493//472 492//472 484//472
f 486//473 494//473 493//473 485//473
f 487//474 495//474 494//474 486//474
f 488//475 496//475 495//475 487//475
f 489//476 497//476 496//476 488//476
f 490//477 498//477 497//477 489//477
f 491//478 499//478 373//478 368//478
f 492//479 500//479 499//479 491//479
f 493//480 501//480 500//480 492//480
f 494//481 502//481 501//481 493//481
f 495//482 503//482 502//482 494//482
f 496//483 504//483 503//483 495//483
f 497//484 505//484 504//484 496//484
f 498//485 506//485 505//485 497//485
f 499//486 507//486 378//486 373//486
f 500//487 508//487 507//487 499//487
f 501//488 509//488 508//488 500//488
f 502//489 510//489 509//489 501//489
f 503//490 511//490 510//490 502//490
f 504//491 512//491 511//491 503//491
f 505//492 513//492 512//492 504//492
f 506//493 514//493 513//493 505//493
f 507//494 515//494 381//494 378//494
f 508//495 516//495 515//495 507//495
f 509//496 517//496 516//496 508//496
f 510//497 518//497 517//497 509//497
f 511//498 519//498 518//498 510//498
f 512//499 520//499 519//499 511//499
f 226//500 521//500 466//500 214//500
f 227//501 522//501 521//501 226//501
f 228//502 523//502 522//502 227//502
f 521//503 524//503 474//503 466//503
f 522//504 525//504 524//504 521//504
f 523//505 526//505 525//505 522//505
f 524//506 527//506 482//506 474//506
f 525//507 528//507 527//507 524//507
f 526//508 529//508 528//508 525//508
f 527//509 530//509 490//509 482//509
f 528//510 531//510 530//510 527//510
f 530//511 532//511 498//511 490//511
f 531//512 533//512 532//512 530//512
f 532//513 534//513 506//513 498//513
f 535//514 283//514 152//514 417//514
f 536//515 284//515 283//515 535//515
f 537//516 285//516 284//516 536//516
f 538//517 286//517 285//517 537//517
f 539//518 287//518 286//518 538//518
f 540//519 288//519 287//519 539//519
f 541//520 289//520 288//520 540//520
f 542//521 290//521 289//521 541//521
f 543//522 535//522 417//522 425//522
f 544//523 536//523 535//523 543//523
f 545//524 537//524 536//524 544//524
f 546//525 538//525 537//525 545//525
f 547//526 539//526 538//526 546//526
f 548//527 540//527 539//527 547//527
f 549//528 541//528 540//528 548//528
f 550//529 542//529 541//529 549//529
f 551//530 543//530 425//530 432//530
f 552//531 544//531 543//531 551//531
f 553//532 545//532 544//532 552//532
f 554//533 546//533 545//533 553//533
f 555//534 547//534 546//534 554//534
f 556//535 548//535 547//535 555//535
f 557//536 549//536 548//536 556//536
f 558//537 550//537 549//537 557//537
f 559//538 551//538 432//538 439//538
f 560//539 552//539 551//539 559//539
f 561//540 553//540 552//540 560//540
f 562//541 554//541 553//541 561//541
f 563//542 555//542 554//542 562//542
f 564//543 556//543 555//543 563//543
f 565//544 557//544 556//544 564//544
f 566//545 558//545 557//545 565//545
f 567//546 559//546 439//546 445//546
f 568//547 560//547 559//547 567//547
f 569//548 561//548 560//548 568//548
f 570//549 562//549 561//549 569//549
f 571//550 563//550 562//550 570//550
f 572//551 564//551 563//551 571//551
f 573//552 565//552 564//552 572//552
f 574//553 566//553 565//553 573//553
f 575//554 567//554 445//554 450//554
f 576//555 568//555 567//555 575//555
f 577//556 569//556 568//556 576//556
f 578//557 570//557 569//557 577//557
f 579//558 571//558 570//558 578//558
f 580//559 572//559 571//559 579//559
f 581//560 573//560 572//560 580//560
f 582//561 574//561 573//561 581//561
f 583//562 575//562 450//562 455//562
f 584//563 576//563 575//563 583//563
f 585//564 577//564 576//564 584//564
f 586//565 578//565 577//565 585//565
f 587//566 579//566 578//566 586//566
f 588//567 580//567 579//567 587//567
f 513//568 589//568 588//568 512//568
f 589//569 581//569 580//569 588//569
f 514//570 590//570 589//570 513//570
f 582//571 590//571 514//571 506//571
f 590//572 582//572 581//572 589//572
f 515//573 591//573 458//573 381//573
f 591//574 583//574 455//574 458//574
f 516//575 592//575 591//575 515//575
f 592//576 584//576 583//576 591//576
f 517//577 593//577 592//577 516//577
f 593//578 585//578 584//578 592//578
f 518//579 594//579 593//579 517//579
f 594//580 586//580 585//580 593//580
f 519//581 595//581 594//581 518//581
f 595//582 587//582 586//582 594//582
f 520//583 596//583 595//583 519//583
f 588//584 596//584 520//584 512//584
f 596//585 588//585 587//585 595//585
f 597//586 302//586 290//586 542//586
f 598//587 303//587 302//587 597//587
f 304//588 599//588 523//588 228//588
f 599//589 304//589 303//589 598//589
f 600//590 597//590 542//590 550//590
f 601//591 598//591 597//591 600//591
f 599//592 602//592 526//592 523//592
f 602//593 599//593 598//593 601//593
f 603//594 600//594 550//594 558//594
f 604//595 601//595 600//595 603//595
f 529//596 605//596 604//596 528//596
f 602//597 605//597 529//597 526//597
f 605//598 602//598 601//598 604//598
f 606//599 603//599 558//599 566//599
f 604//600 607//600 531//600 528//600
f 607//601 604//601 603//601 606//601
f 608//602 606//602 566//602 574//602
f 533//603 609//603 608//603 532//603
f 607//604 609//604 533//604 531//604
f 609//605 607//605 606//605 608//605
f 534//606 610//606 582//606 506//606
f 608//607 610//607 534//607 532//607
f 610//608 608//608 574//608 582//608
